<?xml version="1.0" encoding="utf-8" standalone="no"?>
<!DOCTYPE svg PUBLIC "-//W3C//DTD SVG 1.1//EN"
  "http://www.w3.org/Graphics/SVG/1.1/DTD/svg11.dtd">
<svg xmlns:xlink="http://www.w3.org/1999/xlink" width="360pt" height="288pt" viewBox="0 0 360 288" xmlns="http://www.w3.org/2000/svg" version="1.1">
 <metadata>
  <rdf:RDF xmlns:dc="http://purl.org/dc/elements/1.1/" xmlns:cc="http://creativecommons.org/ns#" xmlns:rdf="http://www.w3.org/1999/02/22-rdf-syntax-ns#">
   <cc:Work>
    <dc:type rdf:resource="http://purl.org/dc/dcmitype/StillImage"/>
    <dc:date>2025-11-08T01:29:40.549100</dc:date>
    <dc:format>image/svg+xml</dc:format>
    <dc:creator>
     <cc:Agent>
      <dc:title>Matplotlib v3.7.1, https://matplotlib.org/</dc:title>
     </cc:Agent>
    </dc:creator>
   </cc:Work>
  </rdf:RDF>
 </metadata>
 <defs>
  <style type="text/css">*{stroke-linejoin: round; stroke-linecap: butt}</style>
 </defs>
 <g id="figure_1">
  <g id="patch_1">
   <path d="M 0 288 
L 360 288 
L 360 0 
L 0 0 
z
" style="fill: #ffffff"/>
  </g>
  <g id="axes_1">
   <g id="PathCollection_1"/>
   <g id="PathCollection_2">
    <path d="M 66.122449 144.264116 
L 64.345572 147.692308 
L 63.041264 155.076923 
L 64.155173 162.461538 
L 66.122449 168.915826 
L 70.492448 162.461538 
L 72.02514 155.076923 
L 69.410092 147.692308 
L 66.122449 144.264116 
z
" clip-path="url(#p5b1716c6dc)" style="fill: none; stroke: #ff1200; stroke-width: 2"/>
   </g>
   <g id="PathCollection_3">
    <path d="M 66.122449 136.839206 
L 63.397837 140.307692 
L 59.879305 147.692308 
L 59.538394 155.076923 
L 60.601136 162.461538 
L 62.604826 169.846154 
L 65.713736 177.230769 
L 66.122449 178.108211 
L 69.523419 177.230769 
L 73.469388 175.372154 
L 75.453489 169.846154 
L 77.000151 162.461538 
L 77.635775 155.076923 
L 76.18023 147.692308 
L 73.469388 142.005693 
L 71.858271 140.307692 
L 66.122449 136.839206 
z
" clip-path="url(#p5b1716c6dc)" style="fill: none; stroke: #ff2400; stroke-width: 2"/>
   </g>
   <g id="PathCollection_4">
    <path d="M 66.122449 130.497107 
L 63.646214 132.923077 
L 58.77551 139.590041 
L 58.51053 140.307692 
L 56.644216 147.692308 
L 56.600968 155.076923 
L 57.372617 162.461538 
L 58.77551 169.81964 
L 58.782209 169.846154 
L 61.590231 177.230769 
L 64.984009 184.615385 
L 66.122449 186.923725 
L 73.469388 187.546245 
L 75.370058 184.615385 
L 79.228706 177.230769 
L 80.816327 171.597125 
L 81.240666 169.846154 
L 82.65569 162.461538 
L 82.897568 155.076923 
L 81.508199 147.692308 
L 80.816327 145.589783 
L 78.774949 140.307692 
L 73.469388 133.59085 
L 72.16158 132.923077 
L 66.122449 130.497107 
z
" clip-path="url(#p5b1716c6dc)" style="fill: none; stroke: #ff3600; stroke-width: 2"/>
   </g>
   <g id="PathCollection_5">
    <path d="M 66.122449 124.333755 
L 64.522184 125.538462 
L 58.77551 131.1356 
L 57.844541 132.923077 
L 55.296164 140.307692 
L 53.813285 147.692308 
L 53.820977 155.076923 
L 54.487924 162.461538 
L 55.866531 169.846154 
L 57.769642 177.230769 
L 58.77551 180.305776 
L 60.686962 184.615385 
L 64.23557 192 
L 66.122449 195.572597 
L 73.469388 197.484705 
L 78.123732 192 
L 80.816327 187.523116 
L 82.186016 184.615385 
L 85.134361 177.230769 
L 86.837026 169.846154 
L 88.163265 163.080894 
L 88.28072 162.461538 
L 88.163265 158.015457 
L 88.088827 155.076923 
L 86.834941 147.692308 
L 84.773642 140.307692 
L 80.987363 132.923077 
L 80.816327 132.700794 
L 73.469388 126.574999 
L 70.363731 125.538462 
L 66.122449 124.333755 
z
" clip-path="url(#p5b1716c6dc)" style="fill: none; stroke: #ff4800; stroke-width: 2"/>
   </g>
   <g id="PathCollection_6">
    <path d="M 58.77551 123.622667 
L 57.380478 125.538462 
L 53.868934 132.923077 
L 52.081798 140.307692 
L 51.428571 144.466584 
L 50.795026 147.692308 
L 50.876895 155.076923 
L 51.428571 160.225589 
L 51.603231 162.461538 
L 52.952445 169.846154 
L 54.600515 177.230769 
L 56.657071 184.615385 
L 58.77551 189.988955 
L 59.714797 192 
L 63.375006 199.384615 
L 66.122449 204.882953 
L 70.095237 206.769231 
L 73.469388 208.723139 
L 75.598376 206.769231 
L 80.816327 200.703635 
L 81.402702 199.384615 
L 85.207559 192 
L 88.163265 185.199638 
L 88.387047 184.615385 
L 90.788677 177.230769 
L 92.428443 169.846154 
L 93.694482 162.461538 
L 93.580121 155.076923 
L 92.542234 147.692308 
L 90.718152 140.307692 
L 88.163265 133.731708 
L 87.808502 132.923077 
L 82.441958 125.538462 
L 80.816327 123.82327 
L 73.469388 119.330073 
L 66.122449 118.433803 
L 58.77551 123.622667 
z
" clip-path="url(#p5b1716c6dc)" style="fill: none; stroke: #d26c00; stroke-width: 2"/>
   </g>
   <g id="PathCollection_7">
    <path d="M 58.77551 116.214616 
L 56.731071 118.153846 
L 52.150558 125.538462 
L 51.428571 127.48316 
L 49.220101 132.923077 
L 47.524174 140.307692 
L 46.775636 147.692308 
L 46.91995 155.076923 
L 47.515882 162.461538 
L 49.100001 169.846154 
L 51.428571 177.217033 
L 51.431389 177.230769 
L 52.841237 184.615385 
L 54.838911 192 
L 58.303538 199.384615 
L 58.77551 200.58813 
L 61.066986 206.769231 
L 64.363178 214.153846 
L 66.122449 217.037881 
L 73.384954 221.538462 
L 73.469388 221.609384 
L 73.676968 221.538462 
L 80.816327 218.091288 
L 82.476418 214.153846 
L 85.727664 206.769231 
L 88.163265 199.551994 
L 88.213483 199.384615 
L 91.466943 192 
L 94.244342 184.615385 
L 95.510204 180.318985 
L 96.545039 177.230769 
L 98.320854 169.846154 
L 99.326209 162.461538 
L 99.159431 155.076923 
L 98.45201 147.692308 
L 96.834128 140.307692 
L 95.510204 135.299772 
L 94.821267 132.923077 
L 91.10792 125.538462 
L 88.163265 121.71909 
L 84.834585 118.153846 
L 80.816327 115.31263 
L 73.469388 112.217798 
L 66.122449 112.443173 
L 58.77551 116.214616 
z
" clip-path="url(#p5b1716c6dc)" style="fill: none; stroke: #969600; stroke-width: 2"/>
   </g>
   <g id="PathCollection_8">
    <path d="M 58.77551 107.197801 
L 53.161758 110.769231 
L 51.428571 112.326898 
L 47.469768 118.153846 
L 44.634199 125.538462 
L 44.081633 128.555068 
L 42.899084 132.923077 
L 41.198487 140.307692 
L 40.949219 147.692308 
L 41.213737 155.076923 
L 42.301641 162.461538 
L 44.081633 168.825343 
L 44.218981 169.846154 
L 45.642249 177.230769 
L 47.268845 184.615385 
L 49.138347 192 
L 51.428571 198.531936 
L 51.699012 199.384615 
L 54.008765 206.769231 
L 55.831608 214.153846 
L 57.770369 221.538462 
L 58.77551 224.543001 
L 61.172313 228.923077 
L 65.040862 236.307692 
L 66.122449 238.136847 
L 70.926622 243.692308 
L 73.469388 246.814615 
L 80.816327 245.029118 
L 81.718066 243.692308 
L 86.079754 236.307692 
L 88.163265 230.898784 
L 88.812069 228.923077 
L 91.44852 221.538462 
L 93.126538 214.153846 
L 94.370394 206.769231 
L 95.44366 199.384615 
L 95.510204 199.178397 
L 98.682343 192 
L 101.40064 184.615385 
L 102.857143 178.803828 
L 103.765418 177.230769 
L 107.623999 169.846154 
L 108.31263 162.461538 
L 106.890225 155.076923 
L 105.527231 147.692308 
L 103.561162 140.307692 
L 102.857143 136.2705 
L 102.474999 132.923077 
L 100.221419 125.538462 
L 95.510204 118.938307 
L 94.91692 118.153846 
L 90.027503 110.769231 
L 88.163265 108.72483 
L 80.816327 106.155409 
L 73.469388 104.160951 
L 66.122449 105.49099 
L 58.77551 107.197801 
z
" clip-path="url(#p5b1716c6dc)" style="fill: none; stroke: #5ac000; stroke-width: 2"/>
   </g>
   <g id="PathCollection_9">
    <path d="M 178.79631 0 
L 180.4602 7.384615 
L 183.361121 14.769231 
L 183.673469 15.154013 
L 189.35537 22.153846 
L 191.020408 24.205005 
L 196.055448 29.538462 
L 198.367347 32.495142 
L 203.495828 29.538462 
L 201.00513 22.153846 
L 198.367347 16.491318 
L 197.368414 14.769231 
L 193.682089 7.384615 
L 191.020408 2.171321 
L 189.067788 0 
" clip-path="url(#p5b1716c6dc)" style="fill: none; stroke: #1eea00; stroke-width: 2"/>
    <path d="M 0 52.071671 
L 0.212343 51.692308 
L 0 51.380409 
" clip-path="url(#p5b1716c6dc)" style="fill: none; stroke: #1eea00; stroke-width: 2"/>
    <path d="M 360 80.932847 
L 359.463929 81.230769 
L 360 81.511606 
" clip-path="url(#p5b1716c6dc)" style="fill: none; stroke: #1eea00; stroke-width: 2"/>
    <path d="M 360 130.509644 
L 352.653061 127.871471 
L 346.578268 132.923077 
L 345.306122 133.32391 
L 339.366515 132.923077 
L 339.553986 125.538462 
L 339.740409 118.153846 
L 339.927511 110.769231 
L 340.115539 103.384615 
L 340.303918 96 
L 340.489359 88.615385 
L 337.959184 88.057174 
L 330.612245 86.411051 
L 325.423779 88.615385 
L 323.265306 90.840794 
L 315.918367 91.743613 
L 308.571429 90.051837 
L 301.22449 92.427769 
L 299.184456 96 
L 301.22449 100.263453 
L 304.903753 103.384615 
L 308.571429 105.936543 
L 313.782464 110.769231 
L 314.985254 118.153846 
L 315.918367 121.205974 
L 320.876938 125.538462 
L 322.730273 132.923077 
L 323.265306 134.232467 
L 328.50709 140.307692 
L 330.469769 147.692308 
L 330.612245 148.027851 
L 334.282737 155.076923 
L 336.393081 162.461538 
L 336.805139 169.846154 
L 337.237143 177.230769 
L 337.739242 184.615385 
L 337.959184 186.271835 
L 342.88325 192 
L 344.216276 199.384615 
L 345.306122 203.734824 
L 346.5936 206.769231 
L 345.306122 210.011214 
L 344.221987 214.153846 
L 342.661441 221.538462 
L 345.306122 227.199407 
L 346.505418 228.923077 
L 351.758463 236.307692 
L 352.653061 237.389534 
L 357.225827 243.692308 
L 360 247.885355 
" clip-path="url(#p5b1716c6dc)" style="fill: none; stroke: #1eea00; stroke-width: 2"/>
    <path d="M 360 189.047995 
L 352.653061 185.973361 
L 350.567825 184.615385 
L 352.653061 180.230705 
L 353.986221 177.230769 
L 359.330182 169.846154 
L 360 168.389328 
" clip-path="url(#p5b1716c6dc)" style="fill: none; stroke: #1eea00; stroke-width: 2"/>
    <path d="M 1.565787 288 
L 0 284.110091 
" clip-path="url(#p5b1716c6dc)" style="fill: none; stroke: #1eea00; stroke-width: 2"/>
    <path d="M 132.912213 288 
L 132.244898 285.095047 
L 131.321471 280.615385 
L 125.839671 273.230769 
L 124.897959 272.688804 
L 119.037496 265.846154 
L 120.287449 258.461538 
L 124.169868 251.076923 
L 124.897959 250.137349 
L 132.244898 243.899048 
L 132.539749 243.692308 
L 139.591837 238.533817 
L 141.176957 236.307692 
L 145.195074 228.923077 
L 141.395209 221.538462 
L 139.591837 217.449671 
L 138.000662 214.153846 
L 136.901956 206.769231 
L 137.756253 199.384615 
L 139.591837 197.948437 
L 145.671288 192 
L 146.938776 190.623384 
L 152.470331 184.615385 
L 150.687733 177.230769 
L 146.938776 174.053869 
L 142.193712 169.846154 
L 139.591837 168.490361 
L 132.244898 164.746349 
L 128.536086 162.461538 
L 124.897959 159.994294 
L 122.14444 155.076923 
L 121.992065 147.692308 
L 124.867954 140.307692 
L 120.36825 132.923077 
L 117.55102 130.33023 
L 110.204082 125.924228 
L 110.057835 125.538462 
L 105.632064 118.153846 
L 104.609803 110.769231 
L 104.276417 103.384615 
L 104.722147 96 
L 104.324069 88.615385 
L 105.698546 81.230769 
L 108.029591 73.846154 
L 102.857143 69.647237 
L 95.510204 73.828056 
L 95.341788 73.846154 
L 93.65974 81.230769 
L 88.163265 83.400325 
L 80.816327 83.051455 
L 73.469388 86.880429 
L 66.122449 87.957812 
L 63.259724 81.230769 
L 59.693594 73.846154 
L 58.77551 71.188798 
L 52.882795 66.461538 
L 51.428571 64.109163 
L 45.555558 59.076923 
L 44.081633 57.418915 
L 40.52671 51.692308 
L 36.734694 44.655412 
L 30.264117 51.692308 
L 30.395303 59.076923 
L 31.045638 66.461538 
L 32.784808 73.846154 
L 35.242504 81.230769 
L 36.734694 83.996807 
L 38.425978 88.615385 
L 36.734694 89.769313 
L 29.387755 91.192321 
L 22.040816 94.710242 
L 14.693878 94.196906 
L 10.143487 96 
L 11.887407 103.384615 
L 14.693878 105.532283 
L 21.543987 110.769231 
L 22.040816 111.14935 
L 29.387755 117.563662 
L 29.62531 118.153846 
L 29.387755 121.5447 
L 29.093758 125.538462 
L 27.242177 132.923077 
L 28.750212 140.307692 
L 29.387755 143.912088 
L 29.811061 147.692308 
L 30.629017 155.076923 
L 31.882068 162.461538 
L 33.376246 169.846154 
L 35.876055 177.230769 
L 36.734694 179.267695 
L 38.651669 184.615385 
L 40.813006 192 
L 42.946533 199.384615 
L 44.081633 203.441552 
L 44.741844 206.769231 
L 44.224689 214.153846 
L 44.582112 221.538462 
L 45.029964 228.923077 
L 45.67335 236.307692 
L 46.263355 243.692308 
L 46.744672 251.076923 
L 46.905635 258.461538 
L 46.919655 265.846154 
L 46.976123 273.230769 
L 47.509278 280.615385 
L 48.022588 288 
" clip-path="url(#p5b1716c6dc)" style="fill: none; stroke: #1eea00; stroke-width: 2"/>
    <path d="M 209.154323 288 
L 205.714286 282.954362 
L 204.11967 280.615385 
L 199.085347 273.230769 
L 198.367347 272.239077 
L 191.020408 271.500955 
L 183.673469 272.867912 
L 181.72341 273.230769 
L 176.326531 274.234966 
L 168.979592 275.779941 
L 161.632653 276.610847 
L 155.307295 280.615385 
L 154.285714 281.603247 
L 147.277316 288 
" clip-path="url(#p5b1716c6dc)" style="fill: none; stroke: #1eea00; stroke-width: 2"/>
    <path d="M 132.244898 5.735789 
L 132.062243 7.384615 
L 132.244898 8.032607 
L 133.099043 7.384615 
L 132.244898 5.735789 
z
" clip-path="url(#p5b1716c6dc)" style="fill: none; stroke: #1eea00; stroke-width: 2"/>
    <path d="M 264.489796 19.625017 
L 263.112864 22.153846 
L 264.489796 28.538922 
L 264.816228 29.538462 
L 266.363237 36.923077 
L 268.643705 44.307692 
L 271.836735 48.406903 
L 279.183673 46.850963 
L 281.150186 44.307692 
L 280.759225 36.923077 
L 279.183673 31.259507 
L 278.455842 29.538462 
L 271.836735 23.068297 
L 269.467958 22.153846 
L 264.489796 19.625017 
" clip-path="url(#p5b1716c6dc)" style="fill: none; stroke: #1eea00; stroke-width: 2"/>
    <path d="M 132.244898 74.970262 
L 125.846404 81.230769 
L 132.244898 87.091159 
L 138.907499 88.615385 
L 139.591837 88.923214 
L 140.182353 88.615385 
L 140.384918 81.230769 
L 139.591837 80.410223 
L 132.244898 74.970262 
z
" clip-path="url(#p5b1716c6dc)" style="fill: none; stroke: #1eea00; stroke-width: 2"/>
    <path d="M 205.714286 80.36738 
L 203.917311 81.230769 
L 202.30547 88.615385 
L 205.714286 95.022003 
L 206.338194 96 
L 205.714286 99.21 
L 204.665273 103.384615 
L 203.212274 110.769231 
L 198.367347 118.144586 
L 198.357439 118.153846 
L 191.020408 121.030451 
L 183.673469 124.943056 
L 182.394408 125.538462 
L 177.554074 132.923077 
L 180.992086 140.307692 
L 183.673469 142.776888 
L 189.51577 147.692308 
L 191.020408 150.904198 
L 194.691314 155.076923 
L 191.591507 162.461538 
L 191.020408 162.775331 
L 183.673469 165.812546 
L 176.326531 168.849299 
L 173.820899 169.846154 
L 176.326531 171.02492 
L 183.673469 176.832324 
L 183.991374 177.230769 
L 191.020408 180.003382 
L 198.367347 182.901372 
L 202.712866 184.615385 
L 205.714286 188.699349 
L 207.855033 192 
L 211.106921 199.384615 
L 213.061224 201.331806 
L 220.408163 206.423829 
L 227.755102 204.744328 
L 233.563497 199.384615 
L 231.581351 192 
L 232.13762 184.615385 
L 234.099255 177.230769 
L 230.808066 169.846154 
L 228.484464 162.461538 
L 227.755102 160.076548 
L 226.01319 155.076923 
L 224.121243 147.692308 
L 225.453322 140.307692 
L 227.755102 135.66354 
L 229.561905 132.923077 
L 227.755102 128.692592 
L 225.997125 125.538462 
L 223.676948 118.153846 
L 227.202139 110.769231 
L 221.809802 103.384615 
L 220.531492 96 
L 227.755102 90.854196 
L 230.467544 88.615385 
L 227.755102 87.339465 
L 220.408163 84.418096 
L 213.061224 82.091656 
L 208.190033 81.230769 
L 205.714286 80.36738 
z
" clip-path="url(#p5b1716c6dc)" style="fill: none; stroke: #1eea00; stroke-width: 2"/>
    <path d="M 286.530612 101.350714 
L 285.222566 103.384615 
L 286.530612 104.182155 
L 293.877551 103.713052 
L 295.846705 103.384615 
L 293.877551 102.694754 
L 286.530612 101.350714 
z
" clip-path="url(#p5b1716c6dc)" style="fill: none; stroke: #1eea00; stroke-width: 2"/>
    <path d="M 146.938776 271.803371 
L 144.934231 273.230769 
L 146.938776 275.974794 
L 153.946241 273.230769 
L 146.938776 271.803371 
z
" clip-path="url(#p5b1716c6dc)" style="fill: none; stroke: #1eea00; stroke-width: 2"/>
   </g>
   <g id="PathCollection_10">
    <path d="M 90.874808 0 
L 91.471731 7.384615 
L 91.852251 14.769231 
L 91.533075 22.153846 
L 90.890696 29.538462 
L 88.853748 36.923077 
L 88.163265 37.650775 
L 83.503997 44.307692 
L 80.816327 48.189704 
L 74.905903 51.692308 
L 73.469388 52.670472 
L 71.777954 51.692308 
L 66.122449 47.651444 
L 63.567882 44.307692 
L 58.77551 37.213414 
L 58.627615 36.923077 
L 55.688043 29.538462 
L 52.783736 22.153846 
L 51.428571 18.276264 
L 50.134315 14.769231 
L 49.495031 7.384615 
L 51.428571 2.468565 
L 52.644587 0 
" clip-path="url(#p5b1716c6dc)" style="fill: none; stroke: #00e71e; stroke-width: 2"/>
    <path d="M 308.124254 288 
L 304.772191 280.615385 
L 301.22449 275.590601 
L 299.603185 273.230769 
L 295.653451 265.846154 
L 294.65675 258.461538 
L 293.877551 256.803309 
L 291.525769 251.076923 
L 288.234949 243.692308 
L 286.530612 239.933102 
L 284.906261 236.307692 
L 281.597521 228.923077 
L 279.183673 225.345724 
L 277.271262 221.538462 
L 274.088199 214.153846 
L 271.836735 210.49242 
L 269.670156 206.769231 
L 264.978719 199.384615 
L 264.489796 198.507193 
L 260.550542 192 
L 259.534063 184.615385 
L 257.142857 177.681249 
L 256.910548 177.230769 
L 252.630861 169.846154 
L 250.889729 162.461538 
L 249.795918 158.538976 
L 248.522819 155.076923 
L 248.731238 147.692308 
L 249.795918 145.813557 
L 251.799329 140.307692 
L 257.142857 133.789177 
L 257.961581 132.923077 
L 261.754736 125.538462 
L 264.489796 123.314138 
L 271.836735 119.290724 
L 273.215717 118.153846 
L 279.183673 114.60948 
L 286.530612 114.603033 
L 293.877551 116.349656 
L 297.755987 118.153846 
L 301.22449 119.324329 
L 307.004379 125.538462 
L 308.571429 127.237838 
L 312.676935 132.923077 
L 315.918367 138.331476 
L 317.529751 140.307692 
L 321.290269 147.692308 
L 323.265306 152.391205 
L 325.4038 155.076923 
L 328.265916 162.461538 
L 329.662372 169.846154 
L 330.097618 177.230769 
L 330.582542 184.615385 
L 330.612245 184.907119 
L 332.296772 192 
L 333.388801 199.384615 
L 332.99889 206.769231 
L 332.639085 214.153846 
L 332.478189 221.538462 
L 332.155482 228.923077 
L 332.647215 236.307692 
L 333.034316 243.692308 
L 333.356786 251.076923 
L 332.740887 258.461538 
L 332.328579 265.846154 
L 330.612245 271.714225 
L 323.265306 270.828725 
L 315.918367 271.386093 
L 314.145711 273.230769 
L 312.057353 280.615385 
L 309.009835 288 
" clip-path="url(#p5b1716c6dc)" style="fill: none; stroke: #00e71e; stroke-width: 2"/>
   </g>
   <g id="PathCollection_11">
    <path d="M 279.183673 124.701685 
L 286.530612 121.641655 
L 293.877551 123.424204 
L 300.20083 125.538462 
L 301.22449 125.830519 
L 307.837367 132.923077 
L 308.571429 133.521802 
L 313.55747 140.307692 
L 315.918367 144.33173 
L 317.990483 147.692308 
L 321.64218 155.076923 
L 323.265306 159.011004 
L 325.095024 162.461538 
L 326.656844 169.846154 
L 327.335271 177.230769 
L 327.868611 184.615385 
L 328.656727 192 
L 329.206152 199.384615 
L 328.883026 206.769231 
L 328.626007 214.153846 
L 328.375326 221.538462 
L 328.035092 228.923077 
L 327.71336 236.307692 
L 326.607106 243.692308 
L 324.242045 251.076923 
L 323.265306 252.761065 
L 315.918367 256.031491 
L 308.571429 255.300799 
L 305.915331 251.076923 
L 302.089066 243.692308 
L 301.22449 242.108603 
L 298.083461 236.307692 
L 294.084859 228.923077 
L 293.877551 228.614846 
L 289.276743 221.538462 
L 286.530612 217.322598 
L 284.213777 214.153846 
L 281.040435 206.769231 
L 279.183673 203.105292 
L 276.438929 199.384615 
L 273.449395 192 
L 271.836735 187.661662 
L 270.033443 184.615385 
L 267.028541 177.230769 
L 265.301909 169.846154 
L 264.634542 162.461538 
L 264.489796 161.375019 
L 262.797503 155.076923 
L 262.998715 147.692308 
L 264.489796 145.01052 
L 265.910479 140.307692 
L 270.457046 132.923077 
L 271.836735 131.225661 
L 278.193658 125.538462 
L 279.183673 124.701685 
z
" clip-path="url(#p5b1716c6dc)" style="fill: none; stroke: #00b75a; stroke-width: 2"/>
   </g>
   <g id="PathCollection_12">
    <path d="M 286.530612 128.856494 
L 293.877551 129.76783 
L 301.22449 131.449654 
L 302.598262 132.923077 
L 308.571429 137.794989 
L 310.417678 140.307692 
L 314.96353 147.692308 
L 315.918367 149.316007 
L 319.175045 155.076923 
L 322.232256 162.461538 
L 323.265306 168.126107 
L 323.651316 169.846154 
L 324.572924 177.230769 
L 325.154679 184.615385 
L 325.992198 192 
L 326.472313 199.384615 
L 326.11899 206.769231 
L 325.737128 214.153846 
L 325.22778 221.538462 
L 324.756611 228.923077 
L 323.744985 236.307692 
L 323.265306 237.919256 
L 315.918367 242.67197 
L 308.571429 243.291512 
L 304.76893 236.307692 
L 301.22449 229.835956 
L 300.730189 228.923077 
L 295.642799 221.538462 
L 293.877551 219.246347 
L 290.339205 214.153846 
L 286.588275 206.769231 
L 286.530612 206.655998 
L 282.852723 199.384615 
L 279.183673 192.225669 
L 279.066786 192 
L 275.853042 184.615385 
L 273.593762 177.230769 
L 271.981342 169.846154 
L 271.836735 168.740351 
L 270.867075 162.461538 
L 269.805205 155.076923 
L 270.136756 147.692308 
L 271.836735 143.367838 
L 273.120127 140.307692 
L 279.183673 133.370564 
L 279.926845 132.923077 
L 286.530612 128.856494 
z
" clip-path="url(#p5b1716c6dc)" style="fill: none; stroke: #008796; stroke-width: 2"/>
   </g>
   <g id="PathCollection_13">
    <path d="M 286.530612 135.811508 
L 293.877551 135.208184 
L 301.22449 136.557095 
L 305.991981 140.307692 
L 308.571429 141.906718 
L 312.397079 147.692308 
L 315.918367 153.680256 
L 316.707911 155.076923 
L 319.789854 162.461538 
L 321.115793 169.846154 
L 322.018206 177.230769 
L 322.564717 184.615385 
L 323.265306 191.471815 
L 323.32767 192 
L 323.738475 199.384615 
L 323.354954 206.769231 
L 323.265306 208.12392 
L 322.725449 214.153846 
L 321.137903 221.538462 
L 316.923556 228.923077 
L 315.918367 229.989935 
L 308.571429 230.818146 
L 307.547341 228.923077 
L 301.91979 221.538462 
L 301.22449 220.708618 
L 296.177749 214.153846 
L 293.877551 210.094111 
L 292.184264 206.769231 
L 288.414757 199.384615 
L 286.530612 195.636804 
L 284.685923 192 
L 280.983798 184.615385 
L 279.183673 178.764145 
L 278.728963 177.230769 
L 277.258914 169.846154 
L 276.286505 162.461538 
L 275.620974 155.076923 
L 276.207116 147.692308 
L 279.183673 141.592423 
L 280.077815 140.307692 
L 286.530612 135.811508 
z
" clip-path="url(#p5b1716c6dc)" style="fill: none; stroke: #0057d2; stroke-width: 2"/>
   </g>
   <g id="PathCollection_14">
    <path d="M 293.877551 139.838703 
L 296.067222 140.307692 
L 301.22449 141.311803 
L 308.571429 145.788003 
L 309.830627 147.692308 
L 314.2925 155.076923 
L 315.918367 159.046095 
L 317.347451 162.461538 
L 318.64953 169.846154 
L 319.650119 177.230769 
L 320.258815 184.615385 
L 320.799753 192 
L 321.052832 199.384615 
L 320.454769 206.769231 
L 318.985962 214.153846 
L 315.918367 220.910437 
L 308.571429 221.384086 
L 302.559094 214.153846 
L 301.22449 212.289659 
L 297.949896 206.769231 
L 293.996717 199.384615 
L 293.877551 199.162219 
L 290.36227 192 
L 286.530612 185.041768 
L 286.311326 184.615385 
L 283.902065 177.230769 
L 282.583377 169.846154 
L 281.812962 162.461538 
L 281.489937 155.076923 
L 282.646952 147.692308 
L 286.530612 142.529574 
L 291.709287 140.307692 
L 293.877551 139.838703 
z
" clip-path="url(#p5b1716c6dc)" style="fill: none; stroke: #0030ff; stroke-width: 2"/>
   </g>
   <g id="PathCollection_15">
    <path d="M 293.877551 144.774013 
L 301.22449 145.521081 
L 304.921096 147.692308 
L 308.571429 149.669884 
L 311.901432 155.076923 
L 314.735258 162.461538 
L 315.918367 168.327516 
L 316.183267 169.846154 
L 317.282031 177.230769 
L 317.952912 184.615385 
L 318.275111 192 
L 318.377277 199.384615 
L 317.55002 206.769231 
L 315.918367 212.364202 
L 308.571429 212.881868 
L 304.042518 206.769231 
L 301.22449 201.362083 
L 300.224203 199.384615 
L 296.317711 192 
L 293.877551 188.148887 
L 291.90427 184.615385 
L 289.342944 177.230769 
L 288.172545 169.846154 
L 287.744489 162.461538 
L 287.767045 155.076923 
L 289.669075 147.692308 
L 293.877551 144.774013 
z
" clip-path="url(#p5b1716c6dc)" style="fill: none; stroke: #0024ff; stroke-width: 2"/>
   </g>
   <g id="PathCollection_16">
    <path d="M 301.22449 151.165909 
L 308.571429 153.552341 
L 309.510365 155.076923 
L 311.88361 162.461538 
L 312.989607 169.846154 
L 314.329066 177.230769 
L 315.380343 184.615385 
L 315.412706 192 
L 314.149718 199.384615 
L 308.571429 202.816531 
L 306.85754 199.384615 
L 302.711617 192 
L 301.22449 189.753667 
L 297.945249 184.615385 
L 295.191571 177.230769 
L 294.452516 169.846154 
L 294.103871 162.461538 
L 294.536565 155.076923 
L 301.22449 151.165909 
z
" clip-path="url(#p5b1716c6dc)" style="fill: none; stroke: #0018ff; stroke-width: 2"/>
   </g>
   <g id="PathCollection_17">
    <path d="M 308.571429 160.910322 
L 309.031962 162.461538 
L 309.708416 169.846154 
L 310.582036 177.230769 
L 310.808397 184.615385 
L 308.571429 190.744316 
L 304.8539 184.615385 
L 301.882746 177.230769 
L 301.22449 173.034229 
L 300.963295 169.846154 
L 301.22449 167.56363 
L 303.847511 162.461538 
L 308.571429 160.910322 
z
" clip-path="url(#p5b1716c6dc)" style="fill: none; stroke: #000cff; stroke-width: 2"/>
   </g>
   <g id="PathCollection_18"/>
  </g>
 </g>
 <defs>
  <clipPath id="p5b1716c6dc">
   <rect x="0" y="0" width="360" height="288"/>
  </clipPath>
 </defs>
</svg>
